<?xml version="1.0" encoding="UTF-8"?>
<svg width="13px" height="13px" viewBox="0 0 13 13" version="1.1" xmlns="http://www.w3.org/2000/svg" xmlns:xlink="http://www.w3.org/1999/xlink">
    <!-- Generator: Sketch 52.6 (67491) - http://www.bohemiancoding.com/sketch -->
    <title>Info/Normal</title>
    <desc>Created with Sketch.</desc>
    <g id="Symbols" stroke="none" stroke-width="1" fill="none" fill-rule="evenodd">
        <g id="Locator" transform="translate(-235.000000, -9.000000)">
            <g id="Info/Normal" transform="translate(235.000000, 9.000000)">
                <path d="M6.5,4.38082192 C6.20440104,4.38082192 5.96855434,4.3219184 5.79245283,4.20410959 C5.61635132,4.08630078 5.52830189,3.91506962 5.52830189,3.69041096 C5.52830189,3.4657523 5.61635132,3.29452114 5.79245283,3.17671233 C5.96855434,3.05890352 6.20440104,3 6.5,3 C6.79559896,3 7.03144566,3.05890352 7.20754717,3.17671233 C7.38364868,3.29452114 7.47169811,3.4657523 7.47169811,3.69041096 C7.47169811,3.91506962 7.38364868,4.08630078 7.20754717,4.20410959 C7.03144566,4.3219184 6.79559896,4.38082192 6.5,4.38082192 Z M5,8.85205479 L5.33018868,8.78630137 C5.42452877,8.76986293 5.48584892,8.75068504 5.51415094,8.72876712 C5.54245297,8.70684921 5.55660377,8.66575373 5.55660377,8.60547945 L5.55660377,5.49863014 C5.55660377,5.43835586 5.54245297,5.39726038 5.51415094,5.37534247 C5.48584892,5.35342455 5.42452877,5.33424666 5.33018868,5.31780822 L5,5.25205479 L5,5.10410959 L7.26415094,4.85753425 L7.44339623,4.85753425 L7.44339623,8.60547945 C7.44339623,8.66575373 7.45754703,8.70684921 7.48584906,8.72876712 C7.51415108,8.75068504 7.57547123,8.76986293 7.66981132,8.78630137 L8,8.85205479 L8,9 L5,9 L5,8.85205479 Z" id="i" fill="#FFFFFF" fill-rule="evenodd"></path>
                <circle id="Oval" stroke="#FFFFFF" stroke-width="1" cx="6.5" cy="6.5" r="5.5"></circle>
            </g>
        </g>
    </g>
</svg>