<?xml version="1.0" encoding="UTF-8"?>
<svg width="20px" height="24px" viewBox="0 0 20 24" version="1.1" xmlns="http://www.w3.org/2000/svg" xmlns:xlink="http://www.w3.org/1999/xlink">
    <!-- Generator: Sketch 52.6 (67491) - http://www.bohemiancoding.com/sketch -->
    <title>Location</title>
    <desc>Created with Sketch.</desc>
    <g id="Page-1" stroke="none" stroke-width="1" fill="none" fill-rule="evenodd">
        <g id="Desktop_1440_2Col" transform="translate(-534.000000, -1496.000000)" fill="#FFFFFF">
            <g id="2_col" transform="translate(0.000000, 1438.000000)">
                <g id="location" transform="translate(534.000000, 52.000000)">
                    <g id="Location" transform="translate(0.000000, 6.000000)">
                        <path d="M10,0 C15.4649308,0.134883845 19.8626183,4.45261344 20,9.81818182 C19.9004166,11.4062564 19.4471685,12.9535409 18.6722222,14.3509091 L18.5944444,14.4818182 C18.5388889,14.58 17.1611111,16.7618182 15.5555556,18.9436364 C12.4944444,23.1709091 11.2,24 10,24 C9.23333333,24 7.42777778,24 1.38333333,14.4872727 L1.30555556,14.3509091 C0.538352726,12.9517759 0.0927175842,11.4045859 0,9.81818182 C0.137381694,4.45261344 4.53506924,0.134883845 10,0 Z M10,5.2173913 C7.38391434,5.2173913 5.26315789,7.31970639 5.26315789,9.91304348 C5.26315789,12.5063806 7.38391434,14.6086957 10,14.6086957 C12.6160857,14.6086957 14.7368421,12.5063806 14.7368421,9.91304348 C14.7368421,7.31970639 12.6160857,5.2173913 10,5.2173913 Z" id="Combined-Shape"></path>
                    </g>
                </g>
            </g>
        </g>
    </g>
</svg>